<svg width="404" height="169" viewBox="0 0 404 169" fill="none" xmlns="http://www.w3.org/2000/svg">
<path d="M112.916 111.004C117.372 103.494 111.243 91.6264 99.2264 84.4978C87.2101 77.3692 73.8571 77.6788 69.4018 85.189L69.2002 85.544C65.2036 92.9494 71.0721 104.31 82.5337 111.357L83.0917 111.695C94.9202 118.712 108.044 118.522 112.701 111.351L112.916 111.004ZM118.077 114.065C114.413 120.241 107.568 122.684 100.979 122.837C94.2902 122.992 86.851 120.902 80.0304 116.855C73.2099 112.809 67.8096 107.282 64.7393 101.338C61.715 95.4822 60.5776 88.3038 64.2415 82.1277C67.9056 75.9514 74.7509 73.5079 81.3398 73.3552C88.0284 73.2003 95.4672 75.2913 102.288 79.3375C109.108 83.3837 114.509 88.9099 117.579 94.8541C120.604 100.71 121.741 107.889 118.077 114.065Z" fill="black"/>
<path d="M101.227 73.4157C97.4382 65.5481 84.1621 64.0844 71.5741 70.1466C58.9862 76.2088 51.8532 87.5013 55.6421 95.3687L55.8263 95.7331C59.7818 103.16 72.4917 104.561 84.7048 98.9156L85.2951 98.6378C97.6863 92.6704 104.792 81.6347 101.397 73.7868L101.227 73.4157ZM106.633 70.8123C109.749 77.2824 107.995 84.3353 104.475 89.9073C100.902 95.5638 95.0435 100.603 87.8984 104.044C80.7534 107.485 73.1612 108.923 66.5111 108.19C59.9602 107.468 53.3522 104.442 50.2363 97.9721C47.1204 91.5019 48.8742 84.4483 52.3939 78.8762C55.967 73.2198 61.8257 68.1818 68.9707 64.7408C76.1157 61.2999 83.7075 59.8604 90.3576 60.5934C96.9087 61.3156 103.517 64.3421 106.633 70.8123Z" fill="black"/>
<path d="M106.371 81.2704C111.346 74.0935 106.07 61.8232 94.5871 53.8639C83.1041 45.9048 69.7626 45.2707 64.7881 52.4476L64.562 52.7875C60.0525 59.8922 65.1042 71.6389 76.0396 79.4776L76.5724 79.8541C87.8759 87.6889 100.981 88.4257 106.132 81.6014L106.371 81.2704ZM111.303 84.6884C107.212 90.5904 100.211 92.5438 93.6282 92.2309C86.9453 91.9132 79.6723 89.3031 73.1544 84.7853C66.6366 80.2676 61.64 74.3732 58.9971 68.2269C56.3938 62.1723 55.7661 54.9316 59.8569 49.0296C63.9479 43.1274 70.9487 41.1733 77.5319 41.4863C84.2148 41.804 91.4873 44.415 98.0051 48.9327C104.523 53.4503 109.52 59.344 112.163 65.4903C114.766 71.545 115.394 78.7862 111.303 84.6884Z" fill="black"/>
<path d="M132.64 45.1171C126.492 38.9164 113.465 41.8644 103.544 51.7021C93.6226 61.5398 90.5645 74.5415 96.713 80.7422L97.006 81.0266C103.168 86.7569 115.64 83.9337 125.342 74.6124L125.81 74.1572C135.576 64.4734 138.692 51.7232 132.922 45.4125L132.64 45.1171ZM136.901 40.8924C141.957 45.9918 142.6 53.231 141.091 59.6465C139.559 66.1592 135.666 72.8338 130.035 78.4177C124.403 84.0016 117.696 87.8387 111.171 89.3156C104.743 90.7703 97.5089 90.0661 92.4525 84.9669C87.396 79.8675 86.7524 72.6277 88.2614 66.2121C89.7934 59.6994 93.6877 53.0255 99.3189 47.4416C104.95 41.8577 111.657 38.02 118.182 36.5431C124.61 35.0882 131.844 35.793 136.901 40.8924Z" fill="black"/>
<path d="M152.191 74.4989C148.882 66.4179 135.718 64.1588 122.788 69.4534C109.859 74.7482 102.06 85.5915 105.369 93.6724L105.531 94.0472C109.033 101.699 121.636 103.861 134.166 98.9597L134.772 98.7179C147.5 93.506 155.256 82.9173 152.339 74.8796L152.191 74.4989ZM157.744 72.2251C160.465 78.8708 158.29 85.8055 154.442 91.1559C150.535 96.5874 144.385 101.265 137.046 104.27C129.707 107.276 122.042 108.255 115.448 107.124C108.953 106.009 102.538 102.592 99.8169 95.9462C97.0955 89.3004 99.27 82.365 103.118 77.0145C107.025 71.5831 113.176 66.9063 120.515 63.901C127.854 60.8957 135.518 59.9151 142.112 61.0465C148.608 62.1611 155.022 65.5794 157.744 72.2251Z" fill="black"/>
<path d="M111.735 91.2649C117.553 97.7766 113.824 110.602 103.405 119.911C92.9863 129.22 79.8237 131.488 74.0055 124.976L73.7393 124.666C68.3916 118.169 71.9625 105.891 81.8526 96.7688L82.3351 96.3298C92.5909 87.1662 105.506 84.8257 111.457 90.9657L111.735 91.2649ZM116.209 87.2672C111.424 81.9122 104.237 80.8332 97.7419 81.9522C91.1486 83.0882 84.2512 86.5717 78.3374 91.8556C72.4237 97.1395 68.1887 103.603 66.3206 110.027C64.4805 116.356 64.7467 123.619 69.5313 128.974C74.3161 134.329 81.5039 135.408 87.9989 134.289C94.5921 133.153 101.489 129.669 107.403 124.385C113.316 119.101 117.552 112.639 119.42 106.214C121.26 99.8858 120.994 92.6224 116.209 87.2672Z" fill="black"/>
<path d="M142.912 116.434C138.558 124.004 125.21 124.492 113.1 117.525C100.989 110.558 94.7012 98.7743 99.0556 91.2051L99.2659 90.8552C103.754 83.7371 116.533 83.2703 128.3 89.7941L128.868 90.1143C140.79 96.9722 147.069 108.498 143.109 116.077L142.912 116.434ZM148.113 119.426C151.694 113.201 150.461 106.039 147.358 100.225C144.208 94.3219 138.734 88.8679 131.86 84.9134C124.986 80.959 117.519 78.9687 110.833 79.2133C104.247 79.4543 97.4357 81.9886 93.8547 88.2133C90.2738 94.4381 91.5068 101.601 94.6095 107.416C97.7591 113.318 103.234 118.772 110.108 122.726C116.982 126.681 124.448 128.672 131.134 128.427C137.72 128.186 144.532 125.651 148.113 119.426Z" fill="black"/>
<path d="M137.854 86.137C142.553 78.7769 136.816 66.7152 125.04 59.1965C113.264 51.6779 99.9079 51.5495 95.2087 58.9096L94.9956 59.2579C90.7585 66.5282 96.2514 78.0752 107.476 85.4942L108.022 85.8502C119.614 93.2513 132.738 93.4914 137.627 86.4769L137.854 86.137ZM142.911 89.3658C139.046 95.4186 132.125 97.6357 125.535 97.5722C118.845 97.5078 111.478 95.175 104.794 90.9073C98.1094 86.6396 92.8931 80.9387 90.0194 74.8969C87.1886 68.9453 86.2872 61.7335 90.1516 55.6808C94.0161 49.6279 100.938 47.4102 107.528 47.4736C114.218 47.538 121.585 49.8717 128.269 54.1393C134.953 58.4069 140.17 64.1072 143.044 70.1489C145.874 76.1007 146.775 83.313 142.911 89.3658Z" fill="black"/>
<path d="M107.872 16.818C83.6965 16.8181 64.2446 22.4594 47.2219 33.1044C30.1235 43.7967 15.0571 59.799 3.81703e-05 81.2304V57.5886C10.9177 42.8584 20.9105 30.4221 40.2585 18.3229C59.6821 6.17651 77.435 3.92479e-05 103.724 0L107.872 16.818Z" fill="black"/>
<path d="M107.872 16.818C83.6965 16.8181 64.2446 22.4594 47.2219 33.1044C30.1235 43.7967 15.0571 59.799 3.81703e-05 81.2304V57.5886C10.9177 42.8584 20.9105 30.4221 40.2585 18.3229C59.6821 6.17651 77.435 3.92479e-05 103.724 0L107.872 16.818Z" fill="black"/>
<path d="M99.5637 16.818C123.739 16.818 143.191 22.4594 160.213 33.1043C177.312 43.7967 192.378 59.799 207.435 81.2303V57.5351C195.102 40.5818 186.525 30.422 167.177 18.3228C147.753 6.17647 130.013 3.92479e-05 103.724 0L99.5637 16.818Z" fill="black"/>
<path d="M99.5638 151.966C123.739 151.966 143.191 146.325 160.213 135.68C177.312 124.987 192.378 108.985 207.435 87.5535V108.726C191.653 131.19 186.525 138.362 167.177 150.461C147.753 162.607 130.013 168.784 103.724 168.784L99.5638 151.966Z" fill="black"/>
<path d="M99.5638 151.966C123.739 151.966 143.191 146.325 160.213 135.68C177.312 124.987 192.378 108.985 207.435 87.5535V108.726C191.653 131.19 186.525 138.362 167.177 150.461C147.753 162.607 130.013 168.784 103.724 168.784L99.5638 151.966Z" fill="black"/>
<path d="M107.872 151.966C83.6965 151.966 64.2446 146.325 47.2218 135.68C30.1235 124.987 15.0571 108.985 0 87.5535L1.07354e-05 108.734C15.7822 131.197 20.9104 138.362 40.2585 150.461C59.682 162.607 77.435 168.784 103.724 168.784L107.872 151.966Z" fill="black"/>
<path d="M227.61 75.5V73.499C232.44 73.154 232.785 73.016 232.785 69.497V47.762C232.785 45.278 232.371 44.933 230.577 44.657L227.955 44.312V42.587L238.443 40.862L239.271 46.382C243.825 42.38 245.895 40.862 248.379 40.862C251.07 40.862 252.036 42.725 252.036 44.243C252.036 46.382 250.518 48.107 248.862 48.107C248.517 48.107 247.965 48.038 247.482 47.762C245.481 46.658 244.308 46.244 243.204 46.244C241.617 46.244 239.271 48.038 239.271 53.351V69.497C239.271 73.016 239.685 73.154 245.826 73.499V75.5H227.61Z" fill="black"/>
<path d="M254.507 44.312V42.587L265.34 40.862L265.823 41.276V64.736C265.823 70.118 268.79 72.602 272.792 72.602C276.38 72.602 279.692 70.601 281.279 67.427C281.624 66.737 281.831 65.219 281.831 63.287V47.762C281.831 45.278 281.417 44.933 279.623 44.657L277.001 44.312V42.587L287.834 40.862L288.317 41.276V69.497C288.317 73.016 288.731 73.154 293.492 73.499V75.5H282.452L281.762 71.36C279.761 72.326 275 76.328 269.135 76.328C264.029 76.328 259.337 73.913 259.337 65.978V47.762C259.337 45.278 258.923 44.933 257.129 44.657L254.507 44.312Z" fill="black"/>
<path d="M301.524 34.6123C301.524 32.1283 303.249 30.4033 305.733 30.4033C308.217 30.4033 309.942 32.1283 309.942 34.6123C309.942 37.0963 308.217 38.8213 305.733 38.8213C303.249 38.8213 301.524 37.0963 301.524 34.6123ZM297.384 75.5V73.499C302.352 73.154 302.559 73.016 302.559 69.497V47.762C302.559 45.278 302.145 44.933 300.351 44.657L297.729 44.312V42.587L308.562 40.862L309.045 41.276V69.497C309.045 73.016 309.321 73.154 314.22 73.499V75.5H297.384Z" fill="black"/>
<path d="M314.898 59.285C314.898 53.282 316.692 48.728 319.659 45.623C322.557 42.656 326.766 40.862 332.424 40.862C335.598 40.862 338.151 41.483 340.083 42.518V31.202C340.083 28.58 339.669 28.235 337.875 28.028L335.253 27.752V26.027L346.086 24.302L346.569 24.716V69.497C346.569 73.016 346.845 73.154 351.744 73.499V75.5H340.566L340.014 75.017V71.636C336.288 74.672 333.045 76.328 329.319 76.328C320.211 76.328 314.898 69.497 314.898 59.285ZM322.074 58.457C322.074 66.392 325.248 72.602 331.596 72.602C335.184 72.602 338.22 71.222 339.6 67.634C340.014 66.461 340.083 65.288 340.083 63.77V51.626C340.083 49.763 340.014 48.797 339.462 47.624C338.22 44.795 335.598 43.277 332.355 43.277C325.317 43.277 322.074 49.487 322.074 58.457Z" fill="black"/>
<path d="M350.985 58.595C350.985 47.417 356.436 40.862 367.545 40.862C378.654 40.862 384.105 47.417 384.105 58.595C384.105 69.773 378.654 76.328 367.545 76.328C356.436 76.328 350.985 69.773 350.985 58.595ZM358.161 58.595C358.161 68.117 361.197 73.913 367.545 73.913C373.893 73.913 376.929 68.117 376.929 58.595C376.929 49.073 373.893 43.277 367.545 43.277C361.197 43.277 358.161 49.073 358.161 58.595Z" fill="black"/>
<path d="M227.434 96.691V94.69H242.89V96.691L239.785 97.036C238.474 97.174 238.198 97.7261 238.681 99.037C239.992 102.763 241.372 106.765 242.752 110.698L246.961 122.29H247.099L251.722 109.525C253.309 105.109 254.62 101.107 255.172 98.899C255.448 97.933 255.241 97.174 254.137 97.036L250.756 96.691V94.69H263.866V96.691C260.692 96.829 259.933 97.243 258.898 99.6581C257.932 101.866 255.931 106.42 253.93 111.802L247.789 128.5H242.821L237.508 113.596C235.783 108.835 234.196 104.35 232.333 99.7961C231.298 97.243 230.677 96.967 227.434 96.691Z" fill="black"/>
<path d="M270.424 87.578C270.424 85.094 272.149 83.369 274.633 83.369C277.117 83.369 278.842 85.094 278.842 87.578C278.842 90.062 277.117 91.787 274.633 91.787C272.149 91.787 270.424 90.062 270.424 87.578ZM266.705 128.5V126.499C271.673 126.154 271.88 126.016 271.88 122.497V100.762C271.88 98.278 271.466 97.9331 269.672 97.6571L267.05 97.312V95.5871L277.883 93.862L278.366 94.276V122.497C278.366 126.016 278.642 126.154 283.541 126.499V128.5H266.705Z" fill="black"/>
<path d="M285.614 116.977H287.615C288.995 122.842 292.1 126.913 297.689 126.913C301.346 126.913 304.106 124.705 304.106 121.186C304.106 116.494 299.759 114.907 296.654 113.941C290.927 112.216 286.235 109.663 286.235 103.936C286.235 97.3811 291.341 93.862 298.793 93.862C301.898 93.862 305.417 94.552 307.694 96.208V104.281H305.693C305.21 100.072 302.864 96.2771 297.965 96.2771C294.515 96.2771 291.755 98.2781 291.755 101.866C291.755 105.73 296.309 107.179 299.138 108.076C306.245 110.284 309.971 113.044 309.971 119.116C309.971 124.981 305.279 129.328 297.068 129.328C292.997 129.328 288.788 128.224 286.304 126.016L285.614 116.977Z" fill="black"/>
<path d="M311.148 97.312V95.5871L321.981 93.862L322.464 94.276V117.736C322.464 123.118 325.431 125.602 329.433 125.602C333.021 125.602 336.333 123.601 337.92 120.427C338.265 119.737 338.472 118.219 338.472 116.287V100.762C338.472 98.278 338.058 97.9331 336.264 97.6571L333.642 97.312V95.5871L344.475 93.862L344.958 94.276V122.497C344.958 126.016 345.372 126.154 350.133 126.499V128.5H339.093L338.403 124.36C336.402 125.326 331.641 129.328 325.776 129.328C320.67 129.328 315.978 126.913 315.978 118.978V100.762C315.978 98.278 315.564 97.9331 313.77 97.6571L311.148 97.312Z" fill="black"/>
<path d="M352.167 119.53C352.167 116.287 353.616 112.837 358.584 111.319C364.035 109.594 370.728 107.869 372.453 106.075V103.177C372.453 97.657 369.279 96.2771 366.588 96.2771C363.828 96.2771 360.999 97.933 359.481 103.039C359.136 104.212 358.722 104.971 357.273 104.971C355.962 104.971 353.409 103.936 353.409 101.728C353.409 97.9331 359.55 93.862 367.347 93.862C377.766 93.862 378.663 99.037 378.663 103.039V119.737C378.663 124.084 379.836 125.395 381.078 125.671C382.113 125.947 383.631 125.809 384.597 125.602L385.011 127.258C382.389 128.569 379.422 129.328 376.869 129.328C374.454 129.328 373.35 127.741 372.384 125.188C370.176 126.637 366.105 129.328 362.103 129.328C355.617 129.328 352.167 124.705 352.167 119.53ZM359.136 118.564C359.136 122.635 361.206 125.671 365.484 125.671C368.175 125.671 372.453 124.222 372.453 118.633V108.904C370.935 109.87 367.278 111.181 364.518 112.216C360.654 113.665 359.136 115.321 359.136 118.564Z" fill="black"/>
<path d="M386.387 128.5V126.499C391.355 126.154 391.562 126.016 391.562 122.497V84.202C391.562 81.58 391.148 81.235 389.354 81.028L386.732 80.752V79.027L397.565 77.302L398.048 77.716V122.497C398.048 126.016 398.324 126.154 403.223 126.499V128.5H386.387Z" fill="black"/>
</svg>
