<svg width="176" height="106" viewBox="0 0 176 106" fill="none" xmlns="http://www.w3.org/2000/svg">
<path d="M0.175588 51.198V49.197C5.00559 48.852 5.35059 48.714 5.35059 45.195V23.46C5.35059 20.976 4.93659 20.631 3.14259 20.355L0.520588 20.01V18.285L11.0086 16.56L11.8366 22.08C16.3906 18.078 18.4606 16.56 20.9446 16.56C23.6356 16.56 24.6016 18.423 24.6016 19.941C24.6016 22.08 23.0836 23.805 21.4276 23.805C21.0826 23.805 20.5306 23.736 20.0476 23.46C18.0466 22.356 16.8736 21.942 15.7696 21.942C14.1826 21.942 11.8366 23.736 11.8366 29.049V45.195C11.8366 48.714 12.2506 48.852 18.3916 49.197V51.198H0.175588Z" fill="black"/>
<path d="M27.0732 20.01V18.285L37.9062 16.56L38.3892 16.974V40.434C38.3892 45.816 41.3562 48.3 45.3582 48.3C48.9462 48.3 52.2582 46.299 53.8452 43.125C54.1902 42.435 54.3972 40.917 54.3972 38.985V23.46C54.3972 20.976 53.9832 20.631 52.1892 20.355L49.5672 20.01V18.285L60.4002 16.56L60.8832 16.974V45.195C60.8832 48.714 61.2972 48.852 66.0582 49.197V51.198H55.0182L54.3282 47.058C52.3272 48.024 47.5662 52.026 41.7012 52.026C36.5952 52.026 31.9032 49.611 31.9032 41.676V23.46C31.9032 20.976 31.4892 20.631 29.6952 20.355L27.0732 20.01Z" fill="black"/>
<path d="M74.0897 10.3103C74.0897 7.82633 75.8147 6.10134 78.2987 6.10134C80.7827 6.10134 82.5077 7.82633 82.5077 10.3103C82.5077 12.7943 80.7827 14.5193 78.2987 14.5193C75.8147 14.5193 74.0897 12.7943 74.0897 10.3103ZM69.9497 51.198V49.197C74.9177 48.852 75.1247 48.714 75.1247 45.195V23.46C75.1247 20.976 74.7107 20.631 72.9167 20.355L70.2947 20.01V18.285L81.1277 16.56L81.6107 16.974V45.195C81.6107 48.714 81.8867 48.852 86.7857 49.197V51.198H69.9497Z" fill="black"/>
<path d="M87.464 34.983C87.464 28.98 89.258 24.426 92.225 21.321C95.123 18.354 99.332 16.56 104.99 16.56C108.164 16.56 110.717 17.181 112.649 18.216V6.9C112.649 4.278 112.235 3.933 110.441 3.726L107.819 3.45V1.725L118.652 0L119.135 0.413999V45.195C119.135 48.714 119.411 48.852 124.31 49.197V51.198H113.132L112.58 50.715V47.334C108.854 50.37 105.611 52.026 101.885 52.026C92.777 52.026 87.464 45.195 87.464 34.983ZM94.64 34.155C94.64 42.09 97.814 48.3 104.162 48.3C107.75 48.3 110.786 46.92 112.166 43.332C112.58 42.159 112.649 40.986 112.649 39.468V27.324C112.649 25.461 112.58 24.495 112.028 23.322C110.786 20.493 108.164 18.975 104.921 18.975C97.883 18.975 94.64 25.185 94.64 34.155Z" fill="black"/>
<path d="M123.551 34.293C123.551 23.115 129.002 16.56 140.111 16.56C151.22 16.56 156.671 23.115 156.671 34.293C156.671 45.471 151.22 52.026 140.111 52.026C129.002 52.026 123.551 45.471 123.551 34.293ZM130.727 34.293C130.727 43.815 133.763 49.611 140.111 49.611C146.459 49.611 149.495 43.815 149.495 34.293C149.495 24.771 146.459 18.975 140.111 18.975C133.763 18.975 130.727 24.771 130.727 34.293Z" fill="black"/>
<path d="M0 72.389V70.388H15.456V72.389L12.351 72.734C11.04 72.872 10.764 73.424 11.247 74.735C12.558 78.461 13.938 82.4631 15.318 86.396L19.527 97.988H19.665L24.288 85.223C25.875 80.807 27.186 76.805 27.738 74.597C28.014 73.631 27.807 72.872 26.703 72.734L23.322 72.389V70.388H36.432V72.389C33.258 72.527 32.499 72.941 31.464 75.356C30.498 77.564 28.497 82.118 26.496 87.5L20.355 104.198H15.387L10.074 89.2941C8.349 84.5331 6.762 80.048 4.899 75.494C3.864 72.941 3.243 72.665 0 72.389Z" fill="black"/>
<path d="M42.9903 63.276C42.9903 60.792 44.7153 59.067 47.1993 59.067C49.6833 59.067 51.4083 60.792 51.4083 63.276C51.4083 65.76 49.6833 67.485 47.1993 67.485C44.7153 67.485 42.9903 65.76 42.9903 63.276ZM39.2707 104.198V102.197C44.2387 101.852 44.4457 101.714 44.4457 98.195V76.46C44.4457 73.976 44.0317 73.6311 42.2377 73.355L39.6157 73.01V71.285L50.4487 69.56L50.9317 69.974V98.195C50.9317 101.714 51.2077 101.852 56.1067 102.197V104.198H39.2707Z" fill="black"/>
<path d="M58.1795 92.675H60.1805C61.5605 98.54 64.6655 102.611 70.2545 102.611C73.9115 102.611 76.6715 100.403 76.6715 96.884C76.6715 92.192 72.3245 90.605 69.2195 89.639C63.4925 87.914 58.8005 85.361 58.8005 79.634C58.8005 73.079 63.9065 69.56 71.3585 69.56C74.4635 69.56 77.9825 70.25 80.2595 71.906V79.979H78.2585C77.7755 75.7701 75.4295 71.9751 70.5305 71.9751C67.0805 71.9751 64.3205 73.9761 64.3205 77.564C64.3205 81.428 68.8745 82.877 71.7035 83.774C78.8105 85.982 82.5365 88.7421 82.5365 94.814C82.5365 100.679 77.8445 105.026 69.6335 105.026C65.5625 105.026 61.3535 103.922 58.8695 101.714L58.1795 92.675Z" fill="black"/>
<path d="M83.714 73.01V71.285L94.547 69.56L95.03 69.974V93.4341C95.03 98.8161 97.997 101.3 101.999 101.3C105.587 101.3 108.899 99.299 110.486 96.125C110.831 95.435 111.038 93.917 111.038 91.985V76.46C111.038 73.976 110.624 73.6311 108.83 73.355L106.208 73.01V71.285L117.041 69.56L117.524 69.974V98.195C117.524 101.714 117.938 101.852 122.699 102.197V104.198H111.659L110.969 100.058C108.968 101.024 104.207 105.026 98.342 105.026C93.236 105.026 88.544 102.611 88.544 94.676V76.46C88.544 73.976 88.13 73.6311 86.336 73.355L83.714 73.01Z" fill="black"/>
<path d="M124.733 95.2281C124.733 91.9851 126.182 88.535 131.15 87.017C136.601 85.292 143.294 83.567 145.019 81.773V78.875C145.019 73.355 141.845 71.9751 139.154 71.9751C136.394 71.9751 133.565 73.631 132.047 78.737C131.702 79.91 131.288 80.669 129.839 80.669C128.528 80.669 125.975 79.634 125.975 77.426C125.975 73.6311 132.116 69.56 139.913 69.56C150.332 69.56 151.229 74.735 151.229 78.737V95.4351C151.229 99.7821 152.402 101.093 153.644 101.369C154.679 101.645 156.197 101.507 157.163 101.3L157.577 102.956C154.955 104.267 151.988 105.026 149.435 105.026C147.02 105.026 145.916 103.439 144.95 100.886C142.742 102.335 138.671 105.026 134.669 105.026C128.183 105.026 124.733 100.403 124.733 95.2281ZM131.702 94.262C131.702 98.333 133.772 101.369 138.05 101.369C140.741 101.369 145.019 99.92 145.019 94.331V84.6021C143.501 85.5681 139.844 86.879 137.084 87.914C133.22 89.363 131.702 91.019 131.702 94.262Z" fill="black"/>
<path d="M158.953 104.198V102.197C163.921 101.852 164.128 101.714 164.128 98.195V59.9C164.128 57.278 163.714 56.933 161.92 56.726L159.298 56.45V54.725L170.131 53L170.614 53.414V98.195C170.614 101.714 170.89 101.852 175.789 102.197V104.198H158.953Z" fill="black"/>
</svg>
